<svg height="464pt" viewBox="-24 0 464 464.00156" width="464pt" xmlns="http://www.w3.org/2000/svg"><path d="m416 136c0 17.671875-14.324219 32-32 32-17.671875 0-32-14.328125-32-32s14.328125-32 32-32c17.675781 0 32 14.328125 32 32zm0 0" fill="#dd4a43"/><path d="m72 344h-48c-13.253906 0-24-10.746094-24-24v-80l72 48zm0 0" fill="#feb784"/><path d="m304 344h40c13.253906 0 24-10.746094 24-24v-80l-64 40zm0 0" fill="#feb784"/><path d="m48 232h272v96c0 75.109375-60.886719 136-136 136-75.109375 0-136-60.890625-136-136zm0 0" fill="#fec9a3"/><path d="m256 232v96c-.035156 62.746094-43.011719 117.316406-104 132.054688 40.53125 10 83.40625.765624 116.222656-25.03125 32.820313-25.796876 51.921875-65.28125 51.777344-107.023438v-96zm0 0" fill="#fec093"/><path d="m216.105469 0c-92.84375 0-168.105469 75.261719-168.105469 168.105469v-.105469h272v-40h64l-17.535156-35.070312c-28.476563-56.953126-86.6875-92.929688-150.359375-92.929688zm0 0" fill="#7ea82d"/><path d="m155.914062 55.054688-7.5625-14.109376c8.074219-4.316406 16.542969-7.84375 25.289063-10.546874l4.71875 15.28125c-7.765625 2.398437-15.28125 5.539062-22.445313 9.375zm0 0" fill="#97c936"/><path d="m103.046875 107.902344-14.101563-7.542969c10.296876-19.183594 24.765626-35.820313 42.335938-48.679687l9.429688 12.921874c-15.628907 11.441407-28.496094 26.238282-37.664063 43.300782zm0 0" fill="#97c936"/><path d="m32 168h304c8.835938 0 16 7.164062 16 16v32c0 8.835938-7.164062 16-16 16h-304c-8.835938 0-16-7.164062-16-16v-32c0-8.835938 7.164062-16 16-16zm0 0" fill="#dd4a43"/><path d="m184 384c-17.671875 0-32-14.328125-32-32h16c0 8.835938 7.164062 16 16 16s16-7.164062 16-16h16c0 17.671875-14.324219 32-32 32zm0 0" fill="#7a4321"/><path d="m128 352c0 13.253906-10.746094 24-24 24s-24-10.746094-24-24 10.746094-24 24-24 24 10.746094 24 24zm0 0" fill="#dd4a43"/><path d="m288 352c0 13.253906-10.746094 24-24 24s-24-10.746094-24-24 10.746094-24 24-24 24 10.746094 24 24zm0 0" fill="#dd4a43"/><path d="m128 284c0 11.046875-8.953125 20-20 20-11.042969 0-20-8.953125-20-20s8.957031-20 20-20c11.046875 0 20 8.953125 20 20zm0 0" fill="#7a4321"/><path d="m280 284c0 11.046875-8.953125 20-20 20-11.042969 0-20-8.953125-20-20s8.957031-20 20-20c11.046875 0 20 8.953125 20 20zm0 0" fill="#7a4321"/><path d="m48 232h272v24h-272zm0 0" fill="#fec093"/><path d="m384 128-17.535156-35.070312c-11.074219-22.101563-26.890625-41.480469-46.320313-56.761719-40.480469 31.769531-64.128906 80.371093-64.144531 131.832031h64v-40zm0 0" fill="#729c22"/><g fill="#d13e37"><path d="m200 192h16v40h-16zm0 0"/><path d="m152 192h16v40h-16zm0 0"/><path d="m104 192h16v40h-16zm0 0"/><path d="m56 192h16v40h-16zm0 0"/><path d="m296 192h16v40h-16zm0 0"/><path d="m248 192h16v40h-16zm0 0"/></g></svg>