<svg height="512pt" viewBox="0 0 512 512.03248" width="512pt" xmlns="http://www.w3.org/2000/svg"><path d="m353.671875 7.429688c-4.695313-4.5625-10.964844-7.144532-17.511719-7.203126-.144531 0-.265625-.1289058-.417968-.1523432-1.34375-.1796878-2.707032-.0273438-3.976563.4414062-5.394531.6875-10.417969 3.113281-14.3125 6.914063l-253.4375 253.421874c-3.992187 4.023438-6.519531 9.269532-7.175781 14.898438-1.039063 7.832031 1.609375 15.703125 7.175781 21.308594l150.867187 150.867187c4.796876 4.804688 11.3125 7.496094 18.101563 7.484375.382813 0 .757813-.09375 1.132813-.109375h.144531c.113281 0 .214843-.050781.324219-.050781 6.214843-.34375 12.085937-2.953125 16.503906-7.332031l253.441406-253.4375c9.992188-10 9.992188-26.203125 0-36.199219zm138.777344 162.917968c.152343.152344.210937.367188.347656.519532l-178.867187 32.152343 27.539062-183.609375s.09375.050782.125.085938zm-169.183594-144.582031-31.410156 209.453125-209.484375 31.433594zm-247.160156 259.226563s-.050781-.09375-.085938-.128907l183.578125-27.546875-32.117187 178.878906c-.164063-.144531-.367188-.199218-.53125-.359374zm170.070312 143.691406 31.25-174.035156 16.980469-2.5625c7.40625-1.0625 13.226562-6.878907 14.292969-14.285157l2.558593-16.996093 174.082032-31.25zm0 0"/><path d="m113.449219 386.425781-93.867188 93.867188c-2.21875 2.144531-3.109375 5.316406-2.328125 8.300781s3.113282 5.3125 6.09375 6.09375c2.984375.78125 6.15625-.109375 8.300782-2.328125l93.867187-93.867187c3.234375-3.347657 3.1875-8.667969-.105469-11.960938-3.292968-3.292969-8.613281-3.335938-11.960937-.105469zm0 0"/><path d="m8.546875 392.460938c2.265625 0 4.433594-.898438 6.035156-2.5l51.199219-51.199219c3.234375-3.347657 3.1875-8.671875-.105469-11.964844-3.289062-3.289063-8.613281-3.335937-11.960937-.101563l-51.199219 51.199219c-2.4414062 2.441407-3.171875 6.109375-1.851563 9.296875 1.324219 3.191406 4.433594 5.269532 7.882813 5.269532zm0 0"/><path d="m121.980469 509.425781c3.332031 3.332031 8.734375 3.332031 12.066406 0l51.199219-51.199219c3.234375-3.347656 3.1875-8.671874-.101563-11.960937-3.292969-3.292969-8.613281-3.339844-11.964843-.105469l-51.199219 51.199219c-3.332031 3.332031-3.332031 8.734375 0 12.066406zm0 0"/><path d="m8.546875 443.660156c2.265625 0 4.433594-.898437 6.035156-2.5l25.597657-25.601562c3.234374-3.347656 3.1875-8.667969-.101563-11.960938-3.292969-3.289062-8.613281-3.335937-11.964844-.101562l-25.597656 25.597656c-2.4414062 2.441406-3.171875 6.109375-1.851563 9.300781 1.324219 3.1875 4.433594 5.265625 7.882813 5.265625zm0 0"/><path d="m96.382812 471.761719-25.601562 25.597656c-2.21875 2.144531-3.109375 5.316406-2.328125 8.300781s3.113281 5.3125 6.097656 6.09375c2.980469.78125 6.15625-.109375 8.296875-2.328125l25.601563-25.597656c3.230469-3.347656 3.1875-8.671875-.105469-11.964844-3.292969-3.289062-8.613281-3.335937-11.960938-.101562zm0 0"/><path d="m147.582031 236.359375c3.332031 3.332031 8.734375 3.332031 12.066407 0l42.664062-42.664063c3.234375-3.351562 3.191406-8.671874-.101562-11.964843-3.292969-3.289063-8.613282-3.335938-11.960938-.101563l-42.667969 42.664063c-3.332031 3.332031-3.332031 8.734375 0 12.066406zm0 0"/><path d="m221.882812 170.59375c2.261719 0 4.433594-.898438 6.03125-2.5l8.535157-8.535156c3.230469-3.347656 3.1875-8.667969-.105469-11.960938-3.292969-3.289062-8.613281-3.335937-11.960938-.101562l-8.535156 8.53125c-2.4375 2.441406-3.167968 6.109375-1.847656 9.296875 1.320312 3.191406 4.429688 5.269531 7.882812 5.269531zm0 0"/></svg>