<?xml version="1.0" encoding="iso-8859-1"?>
<!-- Generator: Adobe Illustrator 16.0.0, SVG Export Plug-In . SVG Version: 6.00 Build 0)  -->
<!DOCTYPE svg PUBLIC "-//W3C//DTD SVG 1.1//EN" "http://www.w3.org/Graphics/SVG/1.1/DTD/svg11.dtd">
<svg version="1.1" id="Capa_1" xmlns="http://www.w3.org/2000/svg" xmlns:xlink="http://www.w3.org/1999/xlink" x="0px" y="0px"
	 width="418.683px" height="418.683px" viewBox="0 0 418.683 418.683" style="enable-background:new 0 0 418.683 418.683;"
	 xml:space="preserve">
<g>
	<g>
		<path d="M310.332,82.426c22.73,0,41.214-18.486,41.214-41.213S333.062,0,310.332,0c-22.724,0-41.213,18.486-41.213,41.213
			S287.608,82.426,310.332,82.426z"/>
		<path d="M108.346,82.426c22.727,0,41.213-18.486,41.213-41.213S131.073,0,108.346,0C85.618,0,67.138,18.486,67.138,41.213
			S85.624,82.426,108.346,82.426z"/>
		<path d="M206.646,210.849l-31.21-108.68c-1.777-10.003-10.353-17.226-20.518-17.226H61.786c-10.171,0-18.746,7.223-20.525,17.226
			l-31.213,108.68c-0.301,1.039-0.275,2.099,0.026,3.06c-0.157,1.002-0.236,1.952-0.236,2.908c0,11.522,9.373,20.897,20.903,20.897
			c10.074,0,18.701-7.201,20.428-16.688l13.476-50.035L42.357,278.996c-0.978,2.474-1.471,5.061-1.471,7.701
			c0,11.522,9.375,20.898,20.905,20.898h2.273v90.195c0,11.528,9.375,20.893,20.9,20.893c11.522,0,20.898-9.375,20.898-20.893
			v-90.195h4.995v90.195c0,11.528,9.373,20.893,20.898,20.893c11.525,0,20.901-9.375,20.901-20.893v-90.195h2.278
			c11.525,0,20.896-9.376,20.896-20.898c0-2.661-0.494-5.245-1.473-7.712l-22.276-107.999l13.368,49.61
			c1.824,9.917,10.457,17.118,20.53,17.118c11.522,0,20.893-9.375,20.893-20.897c0-0.95-0.082-1.916-0.236-2.914
			C206.922,212.942,206.948,211.888,206.646,210.849z"/>
		<path d="M408.607,213.903c0.252-0.808,0.31-1.68,0.141-2.561l-20.514-108.832c-1.648-10.184-10.305-17.567-20.583-17.567H253.01
			c-10.283,0-18.936,7.391-20.552,17.431l-20.545,108.968c-0.165,0.881-0.111,1.753,0.139,2.561
			c-0.159,0.998-0.234,1.953-0.234,2.914c0,11.522,9.375,20.897,20.903,20.897c10.073,0,18.698-7.201,20.539-17.238l12.946-80.925
			l-0.167,258.24c0,11.528,9.37,20.893,20.897,20.893s20.902-9.375,20.902-20.893V269.967h4.986v127.823
			c0,11.528,9.377,20.893,20.91,20.893c11.521,0,20.893-9.375,20.893-20.897l-0.169-258.235l12.967,81.045
			c1.82,9.917,10.452,17.118,20.525,17.118c11.522,0,20.897-9.375,20.897-20.897C408.844,215.856,408.769,214.89,408.607,213.903z"
			/>
	</g>
</g>
<g>
</g>
<g>
</g>
<g>
</g>
<g>
</g>
<g>
</g>
<g>
</g>
<g>
</g>
<g>
</g>
<g>
</g>
<g>
</g>
<g>
</g>
<g>
</g>
<g>
</g>
<g>
</g>
<g>
</g>
</svg>
